Coordinates
version=1
nRows=11
nColumns=42
inDegrees=yes

Units are S.I. units (second, meters, Newtons, ...)
If the header above contains a line with 'inDegrees', this indicates whether rotational values are in degrees (yes) or radians (no).

endheader
time	pelvis_tilt	pelvis_list	pelvis_rotation	pelvis_tx	pelvis_ty	pelvis_tz	hip_flexion_r	hip_adduction_r	hip_rotation_r	knee_angle_r	knee_adduction_r	knee_angle_r_beta	ankle_angle_r	subtalar_angle_r	mtp_angle_r	hip_flexion_l	hip_adduction_l	hip_rotation_l	knee_angle_l	knee_adduction_l	knee_angle_l_beta	ankle_angle_l	subtalar_angle_l	mtp_angle_l	lumbar_extension	lumbar_bending	lumbar_rotation	arm_flex_r	arm_add_r	arm_rot_r	elbow_flex_r	pro_sup_r	wrist_flex_r	wrist_dev_r	arm_flex_l	arm_add_l	arm_rot_l	elbow_flex_l	pro_sup_l	wrist_flex_l	wrist_dev_l
      0.60000000	     16.11517534	      0.34159379	      6.87987641	     -0.47427847	      0.95695877	     -0.14186968	      8.24529977	      1.23459735	    -11.61435690	     28.78035740	      0.47266656	      0.50231200	      1.93870144	     -4.73169693	     -8.23647539	    -26.48809660	     -4.62819378	     -4.43569429	     42.20377573	     -0.74151103	      0.73659484	     -6.17838021	     14.45236395	     -8.23647539	    -35.23478305	      6.94125864	      2.24765014	     -4.03499886	    -17.35881085	    -13.19257335	     59.27180464	     90.00000001	      0.00000000	      0.00000000	      4.34140996	    -18.41353262	      2.07226413	     70.90854103	     90.00000001	      0.00000000	      0.00000000
      0.61000000	     16.04738458	      0.00228686	      6.72563819	     -0.45968751	      0.95855221	     -0.14046368	      7.54370362	      1.89267852	    -12.11361950	     29.00886165	     -0.00551896	      0.50630015	      3.05180733	     -3.66840418	     -8.20638729	    -24.67048794	     -4.97164215	     -3.40810810	     45.98853456	     -0.46169410	      0.80265135	     -7.25654978	     11.52853448	     -8.20638729	    -35.19589900	      7.22068935	      2.76198159	     -3.72863049	    -17.47325190	    -13.00799678	     59.21851553	     90.00000001	      0.00000000	      0.00000000	      3.69133660	    -18.11473887	      1.70968469	     70.35366152	     90.00000001	      0.00000000	      0.00000000
      0.62000000	     16.02373399	     -0.08284003	      6.68198473	     -0.44547394	      0.96043612	     -0.13944002	      6.64485620	      2.14722559	    -13.00433321	     29.04376186	     -0.39558512	      0.50690927	      4.67840356	     -1.82509321	     -8.15239924	    -22.82076874	     -4.97750917	     -2.22965188	     49.54041277	     -0.31836840	      0.86464332	     -7.95083058	      9.09172752	     -8.15239924	    -35.26402872	      7.30544965	      3.08000531	     -3.40549584	    -17.57620302	    -12.86959316	     59.30717716	     90.00000001	      0.00000000	      0.00000000	      3.17428879	    -17.87964426	      1.51147223	     69.83905588	     90.00000001	      0.00000000	      0.00000000
      0.63000000	     15.95978403	     -0.44067323	      6.54562021	     -0.43143813	      0.96230007	     -0.13792539	      5.67732096	      2.80888795	    -13.33698712	     28.69604226	     -0.65207629	      0.50084042	      5.66025542	     -1.02035436	     -8.13216712	    -20.82457078	     -5.27953171	     -2.00504806	     52.95561088	     -0.66476590	      0.92424977	     -7.87774170	      7.89232268	     -8.13216712	    -35.29126462	      7.55582669	      3.60553604	     -3.09721651	    -17.71628627	    -12.66113301	     59.47787715	     90.00000001	      0.00000000	      0.00000000	      2.68750991	    -17.63606904	      1.32862968	     69.19623694	     90.00000001	      0.00000000	      0.00000000
      0.64000000	     15.88521638	     -0.53467447	      6.46109660	     -0.41766755	      0.96434143	     -0.13666275	      4.68948545	      3.08618158	    -14.01126699	     28.36827362	     -0.94662374	      0.49511978	      6.81646148	      0.61727874	     -8.08055307	    -18.82272037	     -5.26529765	     -1.53520428	     55.97378013	     -0.90537953	      0.97692676	     -7.43549933	      6.48920317	     -8.08055307	    -35.33039884	      7.56056429	      3.92524828	     -2.76445693	    -17.80365589	    -12.44205997	     59.67183411	     90.00000001	      0.00000000	      0.00000000	      2.26639875	    -17.46550234	      1.19897439	     68.50061461	     90.00000001	      0.00000000	      0.00000000
      0.65000000	     15.90877315	     -0.72390384	      6.28420641	     -0.40402162	      0.96667844	     -0.13512374	      3.44722753	      3.53549251	    -14.00370080	     27.68132712	     -0.95965674	      0.48313030	      7.48343058	      1.22160300	     -8.06100360	    -16.94460689	     -5.35069581	     -1.60692229	     58.53851682	     -1.41290158	      1.02168986	     -6.63789135	      5.66436999	     -8.06100360	    -35.49637677	      7.59238934	      4.37491824	     -2.43697563	    -17.93087584	    -12.17500118	     59.95790666	     90.00000001	      0.00000000	      0.00000000	      1.90227156	    -17.29517676	      1.10422246	     67.73538031	     90.00000001	      0.00000000	      0.00000000
      0.66000000	     16.02573934	     -0.65390971	      6.10284071	     -0.39046852	      0.96936599	     -0.13386160	      1.99442878	      3.63597334	    -13.77997113	     26.89366316	     -0.76006220	      0.46938297	      8.06700294	      1.65070576	     -8.05157279	    -15.24664798	     -5.09030455	     -1.74097790	     60.52154988	     -2.04699193	      1.05630031	     -5.68015472	      5.02914312	     -8.05157279	    -35.75662653	      7.38432366	      4.63422496	     -2.07153338	    -18.01653085	    -11.96234206	     60.29470950	     90.00000001	      0.00000000	      0.00000000	      1.55350418	    -17.18176412	      1.08753900	     66.94614968	     90.00000001	      0.00000000	      0.00000000
      0.67000000	     16.07961166	     -0.78806360	      5.85946427	     -0.37717995	      0.97194057	     -0.13217330	      0.64377623	      4.00167279	    -13.47048376	     26.01169216	     -0.61460712	      0.45398967	      8.53273232	      2.09414544	     -8.03953930	    -13.43205336	     -5.15261882	     -2.05314954	     62.20065214	     -2.47570123	      1.08560618	     -4.47876695	      4.37175851	     -8.03953930	    -35.99688380	      7.29380056	      5.08476479	     -1.75211870	    -18.14771724	    -11.60717064	     60.64614920	     90.00000001	      0.00000000	      0.00000000	      1.29443987	    -17.04633393	      1.01128673	     66.04552929	     90.00000001	      0.00000000	      0.00000000
      0.68000000	     16.12809086	     -0.77317297	      5.60314641	     -0.36398964	      0.97457351	     -0.13063088	     -0.75487473	      4.19798949	    -13.03037742	     25.04165348	     -0.45487099	      0.43705930	      8.87027392	      2.40876819	     -8.02874308	    -11.67480788	     -4.99190795	     -2.36064272	     63.35639872	     -2.92924816	      1.10577776	     -3.25470558	      3.90945360	     -8.02874308	    -36.22754372	      7.05707176	      5.40041192	     -1.41201502	    -18.25190997	    -11.27727364	     61.06744421	     90.00000001	      0.00000000	      0.00000000	      1.02551837	    -16.95243539	      0.97780073	     65.13349537	     90.00000001	      0.00000000	      0.00000000
      0.69000000	     16.23325586	     -0.87027376	      5.23997280	     -0.35086805	      0.97721776	     -0.12873016	     -2.26818645	      4.60476675	    -12.33051593	     23.86040761	     -0.37842622	      0.41644267	      8.99527930	      2.47844146	     -8.01179523	    -10.03203430	     -4.99969921	     -2.87079599	     64.07941493	     -3.32219281	      1.11839677	     -1.93785876	      3.75970700	     -8.01179523	    -36.51710482	      6.84266160	      5.85004049	     -1.09539997	    -18.41614652	    -10.84256541	     61.58132496	     90.00000001	      0.00000000	      0.00000000	      0.79312433	    -16.84407877	      0.91800912	     64.16239413	     90.00000001	      0.00000000	      0.00000000
      0.70000000	     16.15603270	     -0.66816626	      4.94591778	     -0.33806881	      0.97955633	     -0.12721801	     -3.51849625	      4.57893460	    -11.98449778	     22.87606996	     -0.33122060	      0.39926274	      9.22759256	      2.70300689	     -8.00383335	     -8.20638973	     -4.55616249	     -3.16575128	     64.37650526	     -3.71703270	      1.12358198	     -0.81679771	      3.49556019	     -8.00383335	    -36.63906334	      6.37800339	      5.99850780	     -0.72548648	    -18.45151703	    -10.55838916	     62.07071385	     90.00000001	      0.00000000	      0.00000000	      0.52702640	    -16.83140512	      0.90950780	     63.28582616	     90.00000001	      0.00000000	      0.00000000
